# xmcd CD database file
#
# Track frame offsets:
#	150
#	10571
#	22609
#	35990
#	47659
#	61327
#	72074
#	82525
#	92898
#	105832
#	117524
#	127636
#	141006
#	151583
#	165848
#	175075
#	186428
#	196549
#	209294
#	221583
#
# Disc length: 3089 seconds
#
# Revision: 2
# Processed by: cddbd v1.5.2PL0 Copyright (c) Steve Scherf et al.
# Submitted via: CDex 1.50
#
DISCID=e90c0f14
DTITLE=The Louvin Brothers - The Absolutely Essential 3 Cd Collection - CD 3
DYEAR=2017
DGENRE=Country
TTITLE0=You're Running Wild
TTITLE1=Must You Throw Dirt In My Face?
TTITLE2=I Love You Best Of All
TTITLE3=How's The World Treating You?
TTITLE4=Satan Is Real
TTITLE5=There's A Higher Power
TTITLE6=The Christian Life
TTITLE7=The River Of Jordan
TTITLE8=The Kneeling Drunkard's Plea
TTITLE9=Are You Afraid To Die?
TTITLE10=He Can Be Found
TTITLE11=Satan's Jeweled Crown
TTITLE12=The Angels Rejoiced Last Night
TTITLE13=I'm Ready To Go Home
TTITLE14=Lorene
TTITLE15=I Wish It Had Been A Dream
TTITLE16=My Baby Came Back
TTITLE17=Gonna Lay Down My Old Guitar
TTITLE18=Love Is A Lonely Street
TTITLE19=If You Love Me, Stay Away
EXTD=YEAR: 2017
EXTT0=
EXTT1=
EXTT2=
EXTT3=
EXTT4=
EXTT5=
EXTT6=
EXTT7=
EXTT8=
EXTT9=
EXTT10=
EXTT11=
EXTT12=
EXTT13=
EXTT14=
EXTT15=
EXTT16=
EXTT17=
EXTT18=
EXTT19=
PLAYORDER=
